<svg width="107" height="106" viewBox="0 0 107 106" fill="none" xmlns="http://www.w3.org/2000/svg">
<path d="M39.1251 20.0401C45.5233 8.68004 48.7198 3 53.5021 3C58.2843 3 61.4809 8.68004 67.8791 20.0401L69.5355 22.9801C71.3534 26.2101 72.2624 27.8252 73.6764 28.8902C75.0903 29.9552 76.8578 30.3502 80.3927 31.1402L83.6044 31.8602C96.0271 34.6452 102.233 36.0352 103.713 40.7402C105.188 45.4403 100.956 50.3453 92.4872 60.1504L90.2955 62.6854C87.8918 65.4704 86.6849 66.8654 86.1445 68.5854C85.6042 70.3104 85.786 72.1704 86.1496 75.8855L86.4829 79.2705C87.7605 92.3556 88.4018 98.8956 84.5336 101.801C80.6654 104.706 74.8479 102.056 63.2231 96.7556L60.2083 95.3856C56.9057 93.8756 55.2544 93.1256 53.5021 93.1256C51.7498 93.1256 50.0985 93.8756 46.7958 95.3856L43.7861 96.7556C32.1562 102.056 26.3388 104.706 22.4756 101.806C18.6024 98.8956 19.2437 92.3556 20.5213 79.2705L20.8546 75.8905C21.2182 72.1704 21.4 70.3104 20.8546 68.5904C20.3193 66.8654 19.1124 65.4704 16.7087 62.6904L14.517 60.1504C6.04836 50.3503 1.81656 45.4453 3.29112 40.7402C4.76569 36.0352 10.9821 34.6402 23.4048 31.8602L26.6165 31.1402C30.1464 30.3502 31.9088 29.9552 33.3278 28.8902C34.7468 27.8252 35.6508 26.2101 37.4687 22.9801L39.1251 20.0401Z" stroke="white" stroke-width="6"/>
</svg>
