<svg width="91" height="123" viewBox="0 0 91 123" fill="none" xmlns="http://www.w3.org/2000/svg">
<path d="M27.125 40.25V21.875C27.125 19.462 27.6003 17.0725 28.5237 14.8432C29.4471 12.6138 30.8006 10.5882 32.5069 8.88191C34.2132 7.17564 36.2388 5.82214 38.4682 4.89871C40.6976 3.97528 43.087 3.5 45.5 3.5C47.913 3.5 50.3024 3.97528 52.5318 4.89871C54.7612 5.82214 56.7868 7.17564 58.4931 8.88191C60.1994 10.5882 61.5529 12.6138 62.4763 14.8432C63.3997 17.0725 63.875 19.462 63.875 21.875V40.25" stroke="white" stroke-width="7" stroke-linecap="round" stroke-linejoin="round"/>
<path d="M82.25 40.25H8.75C7.35761 40.25 6.02226 40.8031 5.03769 41.7877C4.05312 42.7723 3.5 44.1076 3.5 45.5V113.75C3.5 115.142 4.05312 116.478 5.03769 117.462C6.02226 118.447 7.35761 119 8.75 119H82.25C83.6424 119 84.9777 118.447 85.9623 117.462C86.9469 116.478 87.5 115.142 87.5 113.75V45.5C87.5 44.1076 86.9469 42.7723 85.9623 41.7877C84.9777 40.8031 83.6424 40.25 82.25 40.25Z" stroke="white" stroke-width="7" stroke-linecap="round" stroke-linejoin="round"/>
</svg>
