<svg width="101" height="104" viewBox="0 0 101 104" fill="none" xmlns="http://www.w3.org/2000/svg">
<path d="M49.717 78.5555C38.7784 78.5555 29.5085 74.7531 21.9074 67.1482C14.3064 59.5432 10.504 50.2587 10.5002 39.2946C10.4965 28.3305 14.2933 19.0422 21.8906 11.4298C29.488 3.81744 38.7522 0.00749249 49.6834 1.1013e-05C60.6146 -0.00747047 69.8863 3.79686 77.4986 11.413C85.1109 19.0292 88.9114 28.3118 88.9002 39.2609C88.889 50.2101 85.0941 59.5002 77.5154 67.1313C69.9367 74.7624 60.6706 78.5705 49.717 78.5555ZM49.7002 72.9444C59.0336 72.9444 66.9669 69.6713 73.5002 63.125C80.0335 56.5787 83.3002 48.6296 83.3002 39.2778C83.3002 37.8151 83.1994 36.4199 82.9978 35.0919C82.7962 33.7602 82.4938 32.4004 82.0906 31.0126C81.0863 31.2296 80.0634 31.3923 79.0218 31.5008C77.9839 31.6055 76.961 31.6579 75.953 31.6579C69.4047 31.9759 63.1813 30.8274 57.2826 28.2127C51.3802 25.5942 46.2898 21.8085 42.0114 16.8558C39.3981 22.1489 35.8421 26.6921 31.3434 30.4852C26.8448 34.2783 21.7637 37.0109 16.1002 38.683V39.0084C15.9882 48.3827 19.2157 56.3823 25.7826 63.0072C32.3496 69.632 40.3221 72.9444 49.7002 72.9444ZM36.6186 48.4519C35.353 48.4519 34.2909 48.0143 33.4322 47.1389C32.5736 46.2674 32.1442 45.1863 32.1442 43.8957C32.1442 42.6052 32.5773 41.5316 33.4434 40.6749C34.3096 39.8183 35.3848 39.3881 36.669 39.3844C37.8973 39.3844 38.9576 39.8202 39.8498 40.6918C40.7458 41.5634 41.1938 42.6444 41.1938 43.935C41.1938 45.2256 40.7458 46.301 39.8498 47.1614C38.9538 48.0218 37.8768 48.4519 36.6186 48.4519ZM62.7146 48.4519C61.4266 48.4519 60.3533 48.0143 59.4946 47.1389C58.636 46.2674 58.2066 45.1863 58.2066 43.8957C58.2066 42.6052 58.6416 41.5316 59.5114 40.6749C60.3813 39.8183 61.4602 39.3881 62.7482 39.3844C64.0362 39.3806 65.1096 39.8164 65.9682 40.6918C66.8269 41.5671 67.2562 42.6482 67.2562 43.935C67.2562 45.2218 66.8194 46.2973 65.9458 47.1614C65.0722 48.0255 63.9933 48.4557 62.709 48.4519M39.4522 7.08684C33.6245 8.99088 28.7432 12.2079 24.8082 16.7379C20.8733 21.268 18.2693 26.5293 16.9962 32.522C22.6634 30.3075 27.5541 26.9894 31.6682 22.5679C35.7824 18.1463 38.3733 12.9879 39.441 7.09245M49.3698 5.61112C48.1453 5.61112 46.9226 5.7009 45.7018 5.88045C44.4848 6.06001 43.2658 6.32934 42.045 6.68845C45.125 12.812 49.6181 17.6095 55.5242 21.081C61.4266 24.5524 67.8181 26.2301 74.6986 26.1141C75.7029 26.1141 76.653 26.0767 77.549 26.0019C78.445 25.9346 79.3597 25.7569 80.293 25.4688C77.5751 19.3452 73.4069 14.4935 67.7882 10.9136C62.1695 7.33373 56.0282 5.56623 49.3642 5.61112M6.71088 80.0916C12.8831 85.5049 19.6482 89.8916 27.0063 93.2516C34.3643 96.6116 42.16 98.2916 50.3934 98.2916C58.6267 98.2916 66.4393 96.6116 73.831 93.2516C81.2227 89.8916 88.0046 85.5049 94.1769 80.0916L80.929 80.0916C80.2108 80.0916 79.6179 79.8564 79.1503 79.386C78.6827 78.9193 78.4489 78.3294 78.4489 77.6164C78.4489 76.9033 78.6827 76.3116 79.1503 75.8412C79.6179 75.3708 80.2108 75.1356 80.929 75.1356L96.4718 75.1356C97.7511 75.1356 98.8266 75.5687 99.6982 76.4348C100.57 77.3009 101.004 78.3761 101 79.6604V95.1668C101 95.8799 100.766 96.4716 100.299 96.942C99.831 97.4086 99.2381 97.642 98.5199 97.642C97.8016 97.642 97.1919 97.4086 96.6906 96.942C96.1894 96.4753 95.935 95.8836 95.9275 95.1668V85.1204C89.4112 90.5524 82.3187 94.9316 74.6502 98.258C66.9817 101.581 58.8961 103.242 50.3934 103.242C41.8907 103.242 33.8051 101.581 26.1366 98.258C18.468 94.9353 11.4093 90.5561 4.96023 85.1204V95.1668C4.96023 95.8798 4.72643 96.4716 4.25884 96.942C3.79125 97.4086 3.20021 97.642 2.48573 97.642C1.77125 97.642 1.17833 97.4086 0.707001 96.942C0.235668 96.4753 -3.13325e-08 95.8836 0 95.1668V79.6548C5.59739e-08 78.3742 0.433929 77.3009 1.30178 76.4348C2.16963 75.5686 3.24697 75.1356 4.53378 75.1356H20.0709C20.7854 75.1356 21.3783 75.3689 21.8497 75.8356C22.3173 76.3023 22.5511 76.8921 22.5511 77.6052C22.5511 78.3183 22.3173 78.9118 21.8497 79.386C21.3821 79.8601 20.7892 80.0953 20.0709 80.0916H6.71088Z" fill="white"/>
</svg>
