<svg width="109" height="109" viewBox="0 0 109 109" fill="none" xmlns="http://www.w3.org/2000/svg">
<path d="M42.0517 9.38142C45.1795 6.71944 46.7434 5.38845 48.3739 4.60649C50.2413 3.7135 52.285 3.25 54.355 3.25C56.425 3.25 58.4687 3.7135 60.3362 4.60649C61.9722 5.3829 63.5361 6.71389 66.6584 9.38142C67.9062 10.4462 68.5273 10.9731 69.1928 11.4167C70.7168 12.4381 72.4284 13.1469 74.2284 13.5019C75.0103 13.6572 75.8256 13.7238 77.456 13.8569C81.5544 14.1785 83.6007 14.3449 85.3088 14.9494C87.2598 15.6379 89.032 16.7543 90.4954 18.2168C91.9588 19.6792 93.0764 21.4506 93.7662 23.4012C94.3707 25.1148 94.5315 27.1612 94.8587 31.254C94.9862 32.8845 95.0528 33.6997 95.2081 34.4872C95.563 36.2841 96.2729 37.9977 97.2933 39.5173C97.737 40.1827 98.2694 40.8039 99.3286 42.0517C101.991 45.1795 103.327 46.7434 104.109 48.3739C105.002 50.2413 105.466 52.285 105.466 54.355C105.466 56.425 105.002 58.4687 104.109 60.3362C103.333 61.9666 101.996 63.5305 99.3286 66.6584C98.6012 67.4626 97.9216 68.3089 97.2933 69.1928C96.2726 70.7151 95.5638 72.4248 95.2081 74.2228C95.0528 75.0103 94.9862 75.8256 94.8587 77.456C94.5315 81.5488 94.3707 83.6007 93.7662 85.3088C93.0764 87.2594 91.9588 89.0308 90.4954 90.4933C89.032 91.9557 87.2598 93.0721 85.3088 93.7606C83.6007 94.3707 81.5544 94.5315 77.456 94.8532C75.8256 94.9863 75.0159 95.0528 74.2284 95.2081C72.4284 95.5631 70.7168 96.2719 69.1928 97.2933C68.3108 97.9218 67.4664 98.6014 66.6639 99.3286C63.5361 101.991 61.9722 103.322 60.3417 104.104C58.4742 104.997 56.4305 105.46 54.3606 105.46C52.2906 105.46 50.2469 104.997 48.3794 104.104C46.7434 103.327 45.1795 101.996 42.0572 99.3286C41.2529 98.6012 40.4067 97.9216 39.5228 97.2933C37.9988 96.2719 36.2872 95.5631 34.4872 95.2081C33.4192 95.0268 32.3415 94.9083 31.2596 94.8532C27.1612 94.5315 25.1148 94.3651 23.4067 93.7606C21.4557 93.0721 19.6836 91.9557 18.2202 90.4933C16.7567 89.0308 15.6392 87.2594 14.9494 85.3088C14.3449 83.6007 14.1841 81.5488 13.8569 77.456C13.8038 76.3724 13.6871 75.2928 13.5075 74.2228C13.1517 72.4248 12.443 70.7151 11.4223 69.1928C10.9786 68.5273 10.4462 67.9062 9.38696 66.6584C6.72498 63.5305 5.38845 61.9666 4.60649 60.3362C3.7135 58.4687 3.25 56.425 3.25 54.355C3.25 52.285 3.7135 50.2413 4.60649 48.3739C5.38845 46.7434 6.71944 45.1795 9.38696 42.0517C10.4462 40.8039 10.9786 40.1827 11.4223 39.5173C12.443 37.9949 13.1517 36.2852 13.5075 34.4872C13.6628 33.6997 13.7293 32.8845 13.8569 31.254C14.1841 27.1612 14.3449 25.1148 14.9494 23.4012C15.6397 21.4501 16.7582 19.6783 18.2226 18.2158C19.687 16.7533 21.4603 15.6372 23.4123 14.9494C25.1204 14.3449 27.1668 14.1785 31.2651 13.8569C32.8956 13.7238 33.7053 13.6572 34.4928 13.5019C36.2927 13.1469 38.0043 12.4381 39.5283 11.4167C40.1938 10.9731 40.8094 10.4462 42.0517 9.38142Z" stroke="white" stroke-width="6.5"/>
<path d="M37.7203 70.995L70.995 37.7202" stroke="white" stroke-width="6.5" stroke-linecap="round"/>
<path d="M73.7679 68.222C73.7679 69.6929 73.1836 71.1034 72.1436 72.1435C71.1036 73.1835 69.693 73.7678 68.2221 73.7678C66.7513 73.7678 65.3407 73.1835 64.3007 72.1435C63.2606 71.1034 62.6763 69.6929 62.6763 68.222C62.6763 66.7512 63.2606 65.3406 64.3007 64.3006C65.3407 63.2605 66.7513 62.6762 68.2221 62.6762C69.693 62.6762 71.1036 63.2605 72.1436 64.3006C73.1836 65.3406 73.7679 66.7512 73.7679 68.222ZM46.039 40.4931C46.039 41.9639 45.4547 43.3745 44.4146 44.4145C43.3746 45.4546 41.964 46.0388 40.4932 46.0388C39.0223 46.0388 37.6118 45.4546 36.5717 44.4145C35.5317 43.3745 34.9474 41.9639 34.9474 40.4931C34.9474 39.0222 35.5317 37.6116 36.5717 36.5716C37.6118 35.5316 39.0223 34.9473 40.4932 34.9473C41.964 34.9473 43.3746 35.5316 44.4146 36.5716C45.4547 37.6116 46.039 39.0222 46.039 40.4931Z" fill="white"/>
</svg>
