<svg width="71" height="69" viewBox="0 0 71 69" fill="none" xmlns="http://www.w3.org/2000/svg">
<path fill-rule="evenodd" clip-rule="evenodd" d="M15.88 9.52384C10.134 9.52384 5.47586 14.1819 5.47586 19.928V52.7831C5.47586 58.5292 10.134 63.1873 15.88 63.1873H48.7352C54.4812 63.1873 59.1393 58.5292 59.1393 52.7831V36.3556C59.1393 34.8434 60.3651 33.6176 61.8772 33.6176C63.3894 33.6176 64.6152 34.8434 64.6152 36.3556V52.7831C64.6152 61.5534 57.5055 68.6631 48.7352 68.6631H15.88C7.10972 68.6631 0 61.5534 0 52.7831V19.928C0 11.1577 7.10972 4.04797 15.88 4.04797H34.4979C36.01 4.04797 37.2359 5.27379 37.2359 6.7859C37.2359 8.29802 36.01 9.52384 34.4979 9.52384H15.88Z" fill="#FF3B1B"/>
<path fill-rule="evenodd" clip-rule="evenodd" d="M17.6601 40.5925C17.666 39.8743 17.954 39.1871 18.4619 38.6792L54.4306 2.71044C55.9275 1.21352 58.3545 1.21352 59.8514 2.71044L67.5955 10.4545C69.0924 11.9514 69.0924 14.3784 67.5955 15.8753L31.6268 51.844C31.1188 52.352 30.4317 52.6399 29.7134 52.6459L20.3431 52.7233C19.6091 52.7294 18.9034 52.4405 18.3844 51.9215C17.8654 51.4025 17.5765 50.6968 17.5826 49.9628L17.6601 40.5925ZM23.1265 41.7586L23.0813 47.2246L28.5473 47.1794L62.5619 13.1649L57.141 7.74406L23.1265 41.7586Z" fill="#FF3B1B"/>
</svg>
