<svg width="111" height="111" viewBox="0 0 111 111" fill="none" xmlns="http://www.w3.org/2000/svg">
<path d="M55.25 107.25C83.9688 107.25 107.25 83.9688 107.25 55.25C107.25 26.5312 83.9688 3.25 55.25 3.25C26.5312 3.25 3.25 26.5312 3.25 55.25C3.25 83.9688 26.5312 107.25 55.25 107.25Z" stroke="white" stroke-width="6.5"/>
<path d="M55.25 24.05V86.4501M70.85 42.25C70.85 35.074 63.8664 29.25 55.25 29.25C46.6336 29.25 39.65 35.074 39.65 42.25C39.65 49.4261 46.6336 55.2501 55.25 55.2501C63.8664 55.2501 70.85 61.0741 70.85 68.2501C70.85 75.4261 63.8664 81.2501 55.25 81.2501C46.6336 81.2501 39.65 75.4261 39.65 68.2501" stroke="white" stroke-width="6.5" stroke-linecap="round"/>
</svg>
